<svg id="Capa_1" enable-background="new 0 0 512.551 512.551" height="512" viewBox="0 0 512.551 512.551" width="512" xmlns="http://www.w3.org/2000/svg"><path d="m382.55 456.719-28.688 25.556h-29.704l13.176-83.958 12.277 3.508zm-252.523 0 32.939-54.894 12.277-3.508 13.176 83.958h-29.704zm126.261-125.777c-40.508 0-73.463-35.513-73.463-79.165v-74.148c31.105-4.538 57.769-22.968 73.463-48.77 15.694 25.802 42.357 44.232 73.463 48.77v74.148c0 43.652-32.955 79.165-73.463 79.165zm0 30c15.84 0 30.857-3.78 44.291-10.522l8.925 28.986c-8.947 28.37-33.903 38.573-53.215 38.573s-44.268-10.203-53.215-38.573l8.925-28.986c13.433 6.742 28.45 10.522 44.289 10.522zm-44.795 74.87c13.282 7.878 28.918 12.167 44.795 12.167s31.513-4.289 44.795-12.167l-7.292 46.464h-75.007zm207.039-99.808c-2.386 21.091-22.911 40.475-45.357 41.353l-36.086-10.31-10.772-34.986c17.359-16.87 29.252-39.908 32.521-65.785 7.946.322 17.634-.667 25.929-3.861 1.434 28.044 13.483 54.26 33.765 73.589zm-19.569 146.272 22.097-19.684-29.223-48.702c49.526 12.26 78.064 23.545 88.946 68.386zm-246.137-246c-20.767 0-32.876-12.911-32.876-28.781s12.109-28.781 32.876-28.781zm206.925-57.562c20.767 0 32.876 12.911 32.876 28.781s-12.109 28.781-32.876 28.781zm-231.941 83.701c8.295 3.194 17.983 4.183 25.929 3.861 3.269 25.877 15.162 48.915 32.521 65.785l-10.772 34.986-36.086 10.31c-22.446-.878-42.971-20.262-45.357-41.353 20.282-19.329 32.331-45.545 33.765-73.589zm-96.017 219.861c10.882-44.841 39.421-56.126 88.946-68.386l-29.223 48.702 22.097 19.684zm459.066-49c-16.98-23.79-44.24-36.48-71.79-42.81 20.25-15.1 31.87-42.53 29.85-67.91-32.76-24.94-35.43-52.68-34.3-85.5 10.12-16.31 10.79-41.72 0-59.12 6.8-97.06-62.48-176.47-158.25-177.66-100.77 1.04-165.53 85.23-158.41 177.66-10.12 16.31-10.79 41.72 0 59.12 2.31 40.94-7.47 64.92-34.3 85.5-1.61 25.75 8.47 51.34 29.85 67.91-66.78 14.38-96.82 63.11-93.22 121.81h512c1.59-27.61-3.851-56.64-21.43-79zm-127.01-284.56c-52.08 4.6-90.45-22.86-92.56-73.46h-29.87c-2.1 50.6-40.48 78.06-92.56 73.46-7.22 0-14.15 1.32-20.55 3.71 3.88-67.98 59.83-122.12 128.05-122.15 68.21.03 124.16 54.17 128.04 122.15-6.401-2.39-13.321-3.71-20.55-3.71z"/></svg>