<svg height="512" viewBox="0 0 128 128" width="512" xmlns="http://www.w3.org/2000/svg"><path d="m124.256 61.859a12.645 12.645 0 0 0 -9-3.732h-17.777l.009-15.56a24.77 24.77 0 0 0 -15.679-22.98c-3.193-1.258-7.216-2.259-10.643-1.525a12.705 12.705 0 1 0 -7.983 8.638l-7.2 12.251-15.953 7.868a8.158 8.158 0 0 0 -4.259 5.308h-3.723a10.2 10.2 0 0 0 -7.567 3.365 12.649 12.649 0 1 0 -20.543 13.625h-2.2a1.75 1.75 0 0 0 -1.75 1.75v14.94a1.75 1.75 0 0 0 1.75 1.75h7v36.57a1.75 1.75 0 0 0 1.75 1.75h12a1.75 1.75 0 0 0 1.75-1.75v-20.527c.124.007.249.02.372.02a7.1 7.1 0 0 0 6.49-4.22l5.153-11.838h24.774l-2.581 3.408a7.768 7.768 0 0 0 -2.207 5.412v21.5a7.939 7.939 0 0 0 7.508 8h.236a7.761 7.761 0 0 0 7.756-7.753v-18.523l5.578-5.527-.938 4.821a8.059 8.059 0 0 0 -.078 2.48l2.87 17.681a7.755 7.755 0 0 0 7.688 6.819 7.885 7.885 0 0 0 .94-.053 7.759 7.759 0 0 0 6.757-8.628c0-.024-.007-.048-.011-.073l-2.71-16.5 2.545-13.069h9.358v36.57a1.75 1.75 0 0 0 1.75 1.75h12a1.75 1.75 0 0 0 1.75-1.75v-36.57h7a1.75 1.75 0 0 0 1.75-1.75v-14.94a12.66 12.66 0 0 0 -3.732-9.008zm-65.303-37.919a9.16 9.16 0 1 1 9.159-9.16 9.17 9.17 0 0 1 -9.159 9.16zm-17.371 26.016 16.418-8.1a1.75 1.75 0 0 0 .734-.683l10.4-17.7a4.26 4.26 0 0 1 3.2-2.065 2.948 2.948 0 0 1 .464-.028 21.21 21.21 0 0 1 21.19 21.189l-.009 15.561h-.149a23.665 23.665 0 0 0 -13.293-5.869l.932-6.113a11.6 11.6 0 0 0 -6.752-12.327 1.749 1.749 0 0 0 -2.218.712l-7.352 12.5a4.226 4.226 0 0 1 -1.784 1.653l-18.25 9a4.249 4.249 0 0 1 -5.743-2.046 3.762 3.762 0 0 1 -.342-1.732 4.572 4.572 0 0 1 2.554-3.952zm36.426-4.339-.992 6.51h-12.716l.612-.3a7.714 7.714 0 0 0 3.255-3.027l6.482-11.025a8.1 8.1 0 0 1 3.359 7.842zm-74.52 14.336a9.16 9.16 0 1 1 9.159 9.16 9.169 9.169 0 0 1 -9.159-9.16zm18.319 8.714v.45h-.45q.231-.217.451-.45zm-11.353 15.39h-6.966v-11.44h18.32v11.436zm10.284 3.835-2.478 5.686a7.37 7.37 0 0 0 .362 6.717 6.689 6.689 0 0 0 2.117 2.184v19.9h-8.5v-34.822h8.5zm14.37-18.775a1.75 1.75 0 0 0 -1.75 1.75v14.575l-5.458 12.552a3.548 3.548 0 0 1 -4.052 2.044 3.6 3.6 0 0 1 -2.371-5.062l3.689-8.47v-.007a1.737 1.737 0 0 0 .106-.332 1.754 1.754 0 0 0 .037-.357v-23.443a6.747 6.747 0 0 1 6.74-6.74h3.646a7.375 7.375 0 0 0 .493 1.466 7.681 7.681 0 0 0 4.448 4.082 7.811 7.811 0 0 0 6.027-.349l10.544-5.2h20.881c.1 0 .209 0 .4.009a20.156 20.156 0 0 1 13.461 5.512 1.749 1.749 0 0 0 1.2.479h22.109a9.249 9.249 0 0 1 9.065 7.49zm43.392 18.856-9.747 9.661a1.749 1.749 0 0 0 -.519 1.243v19.25a4.261 4.261 0 0 1 -4.387 4.251 4.416 4.416 0 0 1 -4.113-4.5v-21.5a4.242 4.242 0 0 1 1.266-3.013 1.806 1.806 0 0 0 .169-.192l4.254-5.617h13.162zm8.877 34.376a4.233 4.233 0 0 1 -4.745-3.783l-2.864-17.666a4.44 4.44 0 0 1 .048-1.338l1.917-9.862 2.167-2.143h6.917l-2.477 12.705a1.73 1.73 0 0 0 -.009.618l2.754 16.771a4.254 4.254 0 0 1 -3.704 4.698zm28.357.028h-8.5v-34.82h8.5zm8.75-38.32h-87.626v-11.44h87.63z"/></svg>